<?xml version="1.0" encoding="UTF-8" standalone="no"?>
<svg
   xmlns:osb="http://www.openswatchbook.org/uri/2009/osb"
   xmlns:dc="http://purl.org/dc/elements/1.1/"
   xmlns:cc="http://creativecommons.org/ns#"
   xmlns:rdf="http://www.w3.org/1999/02/22-rdf-syntax-ns#"
   xmlns:svg="http://www.w3.org/2000/svg"
   xmlns="http://www.w3.org/2000/svg"
   xmlns:xlink="http://www.w3.org/1999/xlink"
   xmlns:sodipodi="http://sodipodi.sourceforge.net/DTD/sodipodi-0.dtd"
   xmlns:inkscape="http://www.inkscape.org/namespaces/inkscape"
   width="113.52559"
   height="54.308613"
   viewBox="0 0 113.52559 54.308613"
   version="1.1"
   id="SVGRoot"
   sodipodi:docname="logo.svg"
   inkscape:version="1.0.1 (3bc2e813f5, 2020-09-07)"
   inkscape:export-filename="/home/suliman/alificon128.png"
   inkscape:export-xdpi="96"
   inkscape:export-ydpi="96">
  <defs
     id="defs119">
    <linearGradient
       id="linearGradient852"
       osb:paint="solid">
      <stop
         style="stop-color:#c2e7ff;stop-opacity:1;"
         offset="0"
         id="stop850" />
    </linearGradient>
    <rect
       x="120"
       y="20"
       width="115"
       height="85"
       id="rect137" />
    <radialGradient
       inkscape:collect="always"
       xlink:href="#linearGradient852"
       id="radialGradient866"
       cx="166.77997"
       cy="37.095009"
       fx="166.77997"
       fy="37.095009"
       r="45.999928"
       gradientTransform="matrix(1,0,0,0.44869539,0,20.450649)"
       gradientUnits="userSpaceOnUse" />
  </defs>
  <sodipodi:namedview
     id="base"
     pagecolor="#ffffff"
     bordercolor="#666666"
     borderopacity="1.0"
     inkscape:pageopacity="0.0"
     inkscape:pageshadow="2"
     inkscape:zoom="3.959798"
     inkscape:cx="26.19374"
     inkscape:cy="41.185574"
     inkscape:document-units="px"
     inkscape:current-layer="layer1"
     inkscape:document-rotation="0"
     showgrid="true"
     inkscape:window-width="1360"
     inkscape:window-height="705"
     inkscape:window-x="-8"
     inkscape:window-y="-8"
     inkscape:window-maximized="1"
     fit-margin-top="0"
     fit-margin-left="0"
     fit-margin-right="0"
     fit-margin-bottom="0"
     inkscape:pagecheckerboard="false">
    <inkscape:grid
       type="xygrid"
       id="grid128"
       originx="-4.3749023"
       originy="-29.605117" />
  </sodipodi:namedview>
  <metadata
     id="metadata122">
    <rdf:RDF>
      <cc:Work
         rdf:about="">
        <dc:format>image/svg+xml</dc:format>
        <dc:type
           rdf:resource="http://purl.org/dc/dcmitype/StillImage" />
        <dc:title></dc:title>
      </cc:Work>
    </rdf:RDF>
  </metadata>
  <g
     inkscape:label="طبقة 1"
     inkscape:groupmode="layer"
     id="layer1"
     transform="translate(-4.3749021,-29.605117)">
    <g
       aria-label="ألف#"
       transform="matrix(1.3511181,0,0,1.3511181,-161.00512,7.3395075)"
       id="text135"
       style="font-style:normal;font-variant:normal;font-weight:bold;font-stretch:normal;font-size:40px;line-height:1.25;font-family:'Noto Sans Arabic UI';-inkscape-font-specification:'Noto Sans Arabic UI Bold';white-space:pre;shape-inside:url(#rect137);mix-blend-mode:normal;fill:#ffffff;fill-opacity:1;stroke:none;stroke-width:0.999913;stroke-miterlimit:4;stroke-dasharray:none;stroke-opacity:1">
      <path
         id="path858"
         style="font-style:normal;font-variant:normal;font-weight:bold;font-stretch:normal;font-family:'Noto Sans Arabic UI';-inkscape-font-specification:'Noto Sans Arabic UI Bold';fill:#ffffff;fill-opacity:1;stroke:none;stroke-width:0.999913;stroke-miterlimit:4;stroke-dasharray:none;stroke-opacity:1"
         d="m 206.42578,35.151271 -0.76172,3.515625 h -3.61328 l -1.07422,4.84375 h 4.04297 l -0.87891,3.515625 h -3.88671 l -1.52344,6.757812 h -3.90625 L 196.25,47.026271 h -4.47266 l -1.44531,6.757812 h -3.90625 l 1.38672,-6.757812 h -3.63281 l 0.72265,-3.515625 h 3.67188 l 1.03515,-4.84375 h -3.94531 l 0.66406,-3.515625 h 4.00391 l 1.44531,-6.953125 h 4.00391 l -1.44531,6.953125 h 4.47265 l 1.48438,-6.953125 h 3.96484 l -1.44531,6.953125 z m -8.32031,3.515625 h -4.53125 L 192.5,43.510646 h 4.51172 z m -70.78125,4.394531 q -0.15625,0.722656 -0.29297,1.308594 -0.11719,0.566406 -0.19531,1.074218 -0.0781,0.488282 -0.11719,0.957032 -0.0391,0.46875 -0.0391,0.957031 0,1.523437 0.625,2.363281 0.64453,0.820313 2.10937,1.210938 1.46485,0.371093 3.84766,0.449218 2.38281,0.05859 5.8789,0.05859 1.67969,0 2.75391,0 1.09375,0 1.77734,0 0.70313,-0.01953 1.09375,-0.03906 0.41016,-0.01953 0.72266,-0.03906 l 0.0586,-0.15625 q -1.46484,-1.113281 -2.28515,-2.558594 -0.82031,-1.445312 -0.82031,-3.222656 0,-1.035156 0.2539,-2.070312 0.25391,-1.054688 0.72266,-2.03125 0.46875,-0.976563 1.11328,-1.835938 0.64453,-0.859375 1.40625,-1.484375 0.76172,-0.644531 1.64062,-0.996094 0.87891,-0.371093 1.79688,-0.371093 1.07422,0 2.03125,0.488281 0.97656,0.488281 1.79687,1.347656 0.82032,0.839844 1.46485,1.972656 0.66406,1.132813 1.11328,2.421875 0.46875,1.269532 0.70312,2.636719 0.25391,1.347656 0.25391,2.65625 0,0.820313 -0.13672,1.542969 -0.11719,0.703125 -0.37109,1.386719 0.41015,0.03906 0.80078,0.05859 0.39062,0.01953 0.83984,0.03906 0.44922,0.01953 0.97657,0.01953 0.54687,0 1.23046,0 v 5.3125 h -0.68359 q -0.85937,0 -1.85547,-0.07813 -0.97656,-0.05859 -1.97265,-0.195312 -0.9961,-0.136719 -1.95313,-0.351563 -0.9375,-0.234375 -1.69922,-0.527344 -1.05469,0.429688 -2.36328,0.683594 -1.28906,0.273438 -2.73437,0.410156 -1.42579,0.136719 -2.98829,0.175782 -1.54296,0.03906 -3.08593,0.03906 h -1.81641 q -2.5,0 -4.60937,-0.03906 -2.10938,-0.01953 -3.84766,-0.214844 -1.71875,-0.175781 -3.08594,-0.566406 -1.34765,-0.390625 -2.30468,-1.113282 -0.78125,-0.585937 -1.3086,-1.328125 -0.50781,-0.742187 -0.82031,-1.5625 -0.29297,-0.839843 -0.42969,-1.738281 -0.11719,-0.898437 -0.11719,-1.777344 0,-1.367187 0.19532,-2.675781 0.21484,-1.308594 0.54687,-2.597656 z m 21.8164,-0.996094 q -0.50781,0 -0.97656,0.351563 -0.46875,0.332031 -0.82031,0.859375 -0.35156,0.507812 -0.56641,1.09375 -0.19531,0.585937 -0.19531,1.054687 0,0.351563 0.17578,0.839844 0.19531,0.46875 0.74219,1.074219 0.56641,0.585937 1.60156,1.308593 1.03516,0.703125 2.73438,1.523438 0.21484,-0.175781 0.35156,-0.449219 0.13672,-0.292969 0.21484,-0.605469 0.0977,-0.3125 0.11719,-0.625 0.0391,-0.3125 0.0391,-0.546875 0,-0.742187 -0.29297,-1.757812 -0.27343,-1.015625 -0.76171,-1.933594 -0.46875,-0.917969 -1.09375,-1.542969 -0.60547,-0.644531 -1.26954,-0.644531 z M 151.25,32.592677 h -4.58984 V 28.471583 H 151.25 Z m 11.21094,23.925781 h -2.38282 q -0.68359,0 -1.01562,-0.703125 -0.35156,-0.722656 -0.35156,-1.953125 0,-1.230469 0.35156,-1.933594 0.33203,-0.722656 1.01562,-0.722656 h 2.57813 q 0.78125,0 1.38672,-0.05859 0.625,-0.05859 1.03515,-0.3125 0.42969,-0.253906 0.64454,-0.761718 0.21484,-0.527344 0.21484,-1.464844 v -22.1875 h 4.16016 v 22.324219 q 0,2.382812 -0.64454,3.90625 -0.64453,1.503906 -1.71875,2.363281 -1.05468,0.859375 -2.4414,1.171875 -1.36719,0.332031 -2.83203,0.332031 z m 13.49609,-0.488281 V 26.420802 h 4.16016 v 29.609375 z m 4.86328,-37.03125 q -0.44922,-0.09766 -0.85937,-0.15625 -0.39063,-0.05859 -0.625,-0.05859 -0.72266,0 -1.21094,0.3125 -0.46875,0.292969 -0.46875,1.035156 0,0.742188 0.54687,1.113282 0.54688,0.371093 1.5625,0.371093 h 1.95313 v 2.246094 h -7.36328 v -2.128906 h 1.5625 l 0.0195,-0.07813 q -0.39063,-0.507813 -0.60547,-0.976563 -0.19531,-0.488281 -0.19531,-1.015625 0,-0.703125 0.29297,-1.269531 0.29297,-0.585937 0.82031,-1.015625 0.54687,-0.429687 1.28906,-0.664062 0.76172,-0.234375 1.67969,-0.234375 0.66406,0 1.60156,0.175781 z" />
    </g>
  </g>
</svg>
