<?xml version="1.0" encoding="UTF-8" standalone="no"?>
<svg
   xmlns:dc="http://purl.org/dc/elements/1.1/"
   xmlns:cc="http://creativecommons.org/ns#"
   xmlns:rdf="http://www.w3.org/1999/02/22-rdf-syntax-ns#"
   xmlns:svg="http://www.w3.org/2000/svg"
   xmlns="http://www.w3.org/2000/svg"
   xmlns:sodipodi="http://sodipodi.sourceforge.net/DTD/sodipodi-0.dtd"
   xmlns:inkscape="http://www.inkscape.org/namespaces/inkscape"
   id="b66c9c51-8109-402d-a3f9-100a5bb3d153"
   data-name="Layer 1"
   width="707.62976"
   height="489.2998"
   viewBox="0 0 707.62975 489.29981"
   version="1.1"
   sodipodi:docname="studio.svg"
   inkscape:version="1.0.1 (3bc2e813f5, 2020-09-07)">
  <metadata
     id="metadata155">
    <rdf:RDF>
      <cc:Work
         rdf:about="">
        <dc:format>image/svg+xml</dc:format>
        <dc:type
           rdf:resource="http://purl.org/dc/dcmitype/StillImage" />
        <dc:title>work_together</dc:title>
      </cc:Work>
    </rdf:RDF>
  </metadata>
  <defs
     id="defs153" />
  <sodipodi:namedview
     pagecolor="#ffffff"
     bordercolor="#666666"
     borderopacity="1"
     objecttolerance="10"
     gridtolerance="10"
     guidetolerance="10"
     inkscape:pageopacity="0"
     inkscape:pageshadow="2"
     inkscape:window-width="1360"
     inkscape:window-height="705"
     id="namedview151"
     showgrid="false"
     fit-margin-top="0"
     fit-margin-left="0"
     fit-margin-right="0"
     fit-margin-bottom="0"
     inkscape:zoom="0.77748544"
     inkscape:cx="193.21781"
     inkscape:cy="273.55026"
     inkscape:window-x="-8"
     inkscape:window-y="-8"
     inkscape:window-maximized="1"
     inkscape:current-layer="b66c9c51-8109-402d-a3f9-100a5bb3d153" />
  <title
     id="title2">work_together</title>
  <rect
     x="0.30041504"
     y="0.39886001"
     width="703.57562"
     height="450.60114"
     fill="#e6e6e6"
     id="rect4" />
  <rect
     x="62.514984"
     y="60.907219"
     width="254"
     height="261"
     fill="#ffffff"
     id="rect6" />
  <rect
     x="411.51498"
     y="65.968742"
     width="254"
     height="317"
     fill="#ffffff"
     id="rect8" />
  <ellipse
     cx="662.12976"
     cy="477.2616"
     rx="45.5"
     ry="6.5"
     fill="#e6e6e6"
     id="ellipse10" />
  <ellipse
     cx="207.22757"
     cy="477.40723"
     rx="45.5"
     ry="6.5"
     fill="#e6e6e6"
     id="ellipse12" />
  <rect
     x="0"
     width="703.57562"
     height="29.890471"
     fill="#00adb5"
     id="rect16"
     y="0" />
  <circle
     cx="22.212204"
     cy="15.28159"
     r="5.5399699"
     fill="#e6e6e6"
     id="circle18" />
  <circle
     cx="43.24054"
     cy="15.28159"
     r="5.5399699"
     fill="#e6e6e6"
     id="circle20" />
  <circle
     cx="64.26886"
     cy="15.28159"
     r="5.5399699"
     fill="#e6e6e6"
     id="circle22" />
  <path
     d="m 609.51498,150.99868 h -1.53864 V 108.84812 A 24.3956,24.3956 0 0 0 583.58067,84.45249 h -89.30161 a 24.3956,24.3956 0 0 0 -24.39567,24.39563 v 231.24125 a 24.3956,24.3956 0 0 0 24.39567,24.39563 h 89.30161 a 24.3956,24.3956 0 0 0 24.39567,-24.39563 V 181.00216 h 1.53864 z"
     fill="#3f3d56"
     id="path24" />
  <path
     d="m 583.56505,90.79939 h -11.65682 a 8.6555,8.6555 0 0 1 -8.01381,11.92446 h -51.15979 a 8.65552,8.65552 0 0 1 -8.01379,-11.92446 h -10.88752 a 18.21836,18.21836 0 0 0 -18.21838,18.21834 v 230.902 a 18.21836,18.21836 0 0 0 18.21838,18.21836 h 89.73173 a 18.21837,18.21837 0 0 0 18.21839,-18.21836 v -230.902 A 18.21837,18.21837 0 0 0 583.56505,90.79939 Z"
     fill="#ffffff"
     id="path26" />
  <rect
     x="101.41821"
     y="225.7756"
     width="176.5444"
     height="8.0526695"
     fill="#e6e6e6"
     id="rect28" />
  <rect
     x="101.41821"
     y="251.7756"
     width="176.5444"
     height="8.0526695"
     fill="#00adb5"
     id="rect30" />
  <rect
     x="101.41821"
     y="277.7756"
     width="176.5444"
     height="8.0526695"
     fill="#e6e6e6"
     id="rect32" />
  <rect
     x="488.16733"
     y="243.34557"
     width="103.06376"
     height="8.0526695"
     fill="#e6e6e6"
     id="rect34" />
  <rect
     x="488.16733"
     y="268.34555"
     width="103.06376"
     height="8.0526695"
     fill="#e6e6e6"
     id="rect36" />
  <rect
     x="488.16733"
     y="293.34555"
     width="103.06376"
     height="8.0526695"
     fill="#e6e6e6"
     id="rect38" />
  <rect
     x="401.21329"
     y="-602.00684"
     width="17.17729"
     height="17.17729"
     transform="rotate(90)"
     fill="#3f3d56"
     id="rect40" />
  <rect
     x="401.21332"
     y="-574.33234"
     width="17.17729"
     height="17.17729"
     transform="rotate(90)"
     fill="#00adb5"
     id="rect42" />
  <rect
     x="401.21329"
     y="-546.65778"
     width="17.17729"
     height="17.17729"
     transform="rotate(90)"
     fill="#3f3d56"
     id="rect44" />
  <rect
     x="401.21332"
     y="-518.98328"
     width="17.17729"
     height="17.17729"
     transform="rotate(90)"
     fill="#3f3d56"
     id="rect46" />
  <rect
     x="401.21329"
     y="-491.30875"
     width="17.17729"
     height="17.17729"
     transform="rotate(90)"
     fill="#3f3d56"
     id="rect48" />
  <rect
     x="510.07034"
     y="138.9903"
     width="57.257641"
     height="57.257641"
     fill="#00adb5"
     id="rect50" />
  <path
     d="m 166.93326,275.59289 -0.74114,1.48227 -2.2234,-11.117 c 0,0 -2.96454,-11.85815 2.96454,-11.85815 5.92908,0 4.4468,11.85815 4.4468,11.85815 v 8.15248 z"
     fill="#a0616a"
     id="path52" />
  <path
     d="m 264.17439,274.07513 0.74113,1.48227 2.22341,-11.117 c 0,0 2.96454,-11.85815 -2.96454,-11.85815 -5.92908,0 -4.44681,11.85815 -4.44681,11.85815 v 8.15249 z"
     fill="#a0616a"
     id="path54" />
  <polygon
     points="377.768,467.145 388.144,462.699 386.662,422.677 397.038,390.808 399.261,428.606 394.815,467.886 408.155,469.369 417.79,388.585 417.049,361.163 382.215,358.94 373.322,413.784 "
     fill="#2f2e41"
     id="polygon56"
     transform="translate(-182.67203)" />
  <path
     d="m 199.54318,460.47515 -5.18794,8.15248 v 18.21626 a 2.209,2.209 0 0 0 1.85635,2.18045 c 2.5428,0.41721 6.97037,0.71364 8.51954,-1.86831 2.2234,-3.70567 0.74113,-11.85816 0.74113,-11.85816 0,0 2.96454,-5.92907 1.48227,-10.37588 -1.48227,-4.44681 -2.96454,-5.18794 -2.96454,-5.18794 z"
     fill="#2f2e41"
     id="path58" />
  <path
     d="m 221.77723,467.8865 1.48227,2.2234 c 0,0 2.2234,2.22341 0.74113,3.70568 a 28.96565,28.96565 0 0 0 -2.96454,3.70567 c 0,0 -8.15248,2.2234 -8.15248,-0.74114 v -9.63475 z"
     fill="#2f2e41"
     id="path60" />
  <circle
     cx="219.10623"
     cy="288.79507"
     r="9.8242702"
     fill="#a0616a"
     id="circle62" />
  <polygon
     points="407.784,306.69 407.043,292.608 395.185,291.867 394.444,305.949 "
     fill="#a0616a"
     id="polygon64"
     transform="translate(-182.67203)" />
  <path
     d="m 226.96517,307.06026 -2.10384,-5.13957 c 0,0 -9.75432,-3.75405 -12.71885,-0.0484 l -1.48227,4.44681 -11.85816,-2.96454 -6.67021,14.8227 5.92908,42.24468 c 0,0 15.56382,20.01064 36.3156,0.74113 l 5.92908,-40.02125 -4.44676,-15.56383 z"
     fill="#575a89"
     id="path66" />
  <polygon
     points="433.354,296.684 442.4,269.907 449.4,272.907 441.506,304.837 420.013,324.847 417.049,308.543 418.531,305.578 "
     fill="#575a89"
     id="polygon68"
     transform="translate(-182.67203)" />
  <polygon
     points="365.91,293.72 354.793,271.486 345.9,274.45 355.534,301.872 379.251,321.142 382.956,304.837 381.474,303.355 "
     fill="#575a89"
     id="polygon70"
     transform="translate(-182.67203)" />
  <path
     d="m 226.39776,273.75036 1.60629,-0.80315 -2.40943,-0.80314 v -0.80318 c 0,0 -12.04715,-4.81886 -13.65343,3.21257 a 16.14329,16.14329 0 0 0 0,19.27544 v 2.40942 l 12.85029,1.60629 1.60628,-4.81886 c 0,0 8.03144,-14.45653 0,-19.27539 z"
     fill="#2f2e41"
     id="path72" />
  <rect
     x="101.51498"
     y="90.907219"
     width="176"
     height="101"
     fill="#e6e6e6"
     id="rect106" />
  <path
     d="m 625.53014,291.23355 0.81548,-5.25988 c 0,0 4.75311,-10.80516 0.99606,-11.38765 -3.75705,-0.58249 -6.89084,9.70426 -6.89084,9.70426 l 1.37467,10.98574 z"
     fill="#ffb8b8"
     id="path108" />
  <polygon
     points="809.187,289.847 799.302,289.084 799.785,320.707 828.962,336.004 846.67,321.051 813.089,314.306 "
     fill="#575a89"
     id="polygon110"
     transform="translate(-182.67203)" />
  <polygon
     points="809.187,289.847 799.302,289.084 799.785,320.707 828.962,336.004 846.67,321.051 813.089,314.306 "
     opacity="0.2"
     id="polygon112"
     transform="translate(-182.67203)" />
  <rect
     x="-675.7049"
     y="-284.76431"
     width="103.06376"
     height="8.0526695"
     transform="scale(-1)"
     fill="#00adb5"
     id="rect114" />
  <path
     d="m 618.96918,289.43033 0.007,-5.32271 c 0,0 3.05587,-11.402 -0.74606,-11.40676 -3.80193,-0.005 -5.33608,10.63873 -5.33608,10.63873 l 3.02818,10.64924 z"
     fill="#ffb8b8"
     id="path116" />
  <path
     d="m 662.68114,304.67478 4.6075,-1.12311 a 11.86169,11.86169 0 0 0 11.6416,-14.21088 v 0 a 15.50416,15.50416 0 0 0 -15.4847,-15.52363 v 0 a 15.50417,15.50417 0 0 0 -15.5237,15.48467 v 0 a 12.32065,12.32065 0 0 0 14.7593,15.37295 z"
     fill="#2f2e41"
     id="path118" />
  <polygon
     points="828.797,462.833 840.203,462.847 838.732,423.305 832.709,375.393 818.254,381.458 822.005,422.524 "
     fill="#2f2e41"
     id="polygon120"
     transform="translate(-182.67203)" />
  <path
     d="m 647.64899,460.55368 -7.6096,4.55277 c 0,0 -12.1681,1.50549 -9.89171,5.31029 2.27639,3.8048 28.89279,1.55707 28.8947,0.0363 0.002,-1.52078 -0.748,-9.886 -2.26874,-9.88789 z"
     fill="#2f2e41"
     id="path122" />
  <path
     d="m 669.25024,377.91039 c 0,0 -0.2139,5.87095 -5.5481,14.98891 l 0.725,28.13527 27.33,35.01218 -9.8955,8.35184 -33.40927,-38.06137 -8.307,-45.63372 10.65879,-10.63205 z"
     fill="#2f2e41"
     id="path124" />
  <path
     d="m 689.47604,456.04389 c 0,0 9.1227,1.53224 7.5971,5.33226 -1.5255,3.80002 -5.3494,21.28415 -15.2316,18.99057 0,0 -4.5623,-0.006 -3.0377,-3.04536 a 55.0044,55.0044 0 0 1 3.0482,-5.31889 l 0.012,-9.885 z"
     fill="#2f2e41"
     id="path126" />
  <circle
     cx="657.74316"
     cy="294.04135"
     r="11.40581"
     fill="#ffb8b8"
     id="circle128" />
  <polygon
     points="833.546,314.563 835.083,301.639 845.728,301.652 845.712,314.578 "
     fill="#ffb8b8"
     id="polygon130"
     transform="translate(-182.67203)" />
  <path
     d="m 647.8381,309.99707 3.68652,-0.9056 11.52122,0.9247 c 0,0 6.0754,6.09074 5.3132,7.61055 -0.7623,1.51981 -4.611,38.774 -4.611,38.774 l 6.81,26.62213 -24.33427,1.49021 -12.16428,-1.53605 2.34133,-47.90151 c 0,0 -5.30647,-12.93326 1.54178,-16.7266 a 29.95429,29.95429 0 0 0 9.8955,-8.35183 z"
     fill="#575a89"
     id="path132" />
  <polygon
     points="802.404,287.911 792.518,288.658 797.801,319.841 828.964,330.526 844.193,313.056 809.978,311.492 "
     fill="#575a89"
     id="polygon134"
     transform="translate(-182.67203)" />
  <circle
     cx="679.76038"
     cy="278.27936"
     r="7.35883"
     fill="#2f2e41"
     id="circle136" />
  <path
     d="m 672.97054,274.32346 a 7.35536,7.35536 0 0 1 8.807,-7.20494 7.3554,7.3554 0 1 0 -4.5877,13.86237 7.35277,7.35277 0 0 1 -4.2193,-6.65743 z"
     fill="#2f2e41"
     id="path138" />
  <path
     d="m 666.65744,278.49689 -9.92077,-1.82669 -7.62952,4.78184 a 11.57336,11.57336 0 0 0 -5.33128,11.29456 l 7.64125,-1.93681 1.71106,-4.29045 2.03787,3.34024 8.26719,14.45412 8.37,-4.55181 5.3332,-8.35757 z"
     fill="#2f2e41"
     id="path140" />
  <rect
     x="-29.319422"
     y="133.29448"
     width="1.99958"
     height="202.92117"
     transform="rotate(-60.15005)"
     fill="#ffffff"
     id="rect142" />
  <rect
     x="-7.4541373"
     y="215.96733"
     width="202.92117"
     height="1.99958"
     transform="rotate(-29.84553)"
     fill="#ffffff"
     id="rect144" />
  <rect
     x="261.76648"
     y="459.21085"
     width="1.99979"
     height="80.610168"
     transform="rotate(-45)"
     fill="#ffffff"
     id="rect146" />
  <rect
     x="222.46132"
     y="498.51602"
     width="80.610168"
     height="1.99979"
     transform="rotate(-45)"
     fill="#ffffff"
     id="rect148" />
</svg>
